<?xml version="1.0" encoding="UTF-8"?>
<svg width="735px" height="350px" viewBox="0 0 735 350" version="1.1" xmlns="http://www.w3.org/2000/svg" xmlns:xlink="http://www.w3.org/1999/xlink">
    <title>Stage_2/Graphic_2</title>
    <g id="Page-1" stroke="none" stroke-width="1" fill="none" fill-rule="evenodd">
        <g id="Group" transform="translate(-36.000000, 1.000000)">
            <g id="illustration" transform="translate(51.710394, 20.804201)">
                <g id="Group" transform="translate(8.513761, 0.000000)">
                    <path d="M692.0838,293.541556 C692.0838,297.823373 538.663547,301.294683 349.406233,301.294683 C160.14892,301.294683 6.72600175,297.823373 6.72600175,293.541556 C6.72600175,289.25974 160.14892,285.788429 349.406233,285.788429 C538.663547,285.788429 692.0838,289.25974 692.0838,293.541556" id="Fill-20" fill="#42210B" opacity="0.550641741"></path>
                    <g id="Group-26">
                        <g id="Group-28" transform="translate(228.648729, 65.924220)" fill="#FFFFFF">
                            <path d="M16.5737722,19.3963244 C15.405696,18.0053704 9.18636718,10.7094649 0,1.81132134 L0,0 C8.87821162,8.52619546 15.1641687,15.7384677 17.1005516,18.0119731 C16.9235704,18.4719562 16.7507534,18.9319394 16.5737722,19.3963244" id="Fill-29"></path>
                        </g>
                        <path d="M232.275638,179.768387 C232.275638,179.768387 231.018338,129.054863 270.776139,124.384913 C310.53394,119.717274 296.18647,177.405697 279.142815,196.291046 C279.142815,196.291046 301.234058,170.169816 315.949294,187.810307 C330.66453,205.448488 289.359814,225.680316 289.359814,225.680316 C289.359814,225.680316 322.417378,214.423475 331.567856,222.049673 C343.380039,231.893057 320.985389,246.212387 320.985389,246.212387 C320.985389,246.212387 356.739138,231.893057 349.250504,257.381465 L179.255276,256.903384 L232.275638,179.768387" id="Fill-43" fill="#FFA400"></path>
                        <path d="M157.136363,32.226252 C225.398353,24.2121676 200.764524,123.260065 171.501492,155.685186 C171.501492,155.685186 209.430959,110.83645 234.696223,141.124217 C259.961486,171.408018 189.043525,206.14497 189.043525,206.14497 C189.043525,206.14497 245.801573,186.817584 261.512446,199.911353 C281.793326,216.811911 210.516675,237.895322 210.516675,237.895322 C210.516675,237.895322 140.34445,245.18131 1.51234784e-14,259.753286 L91.0330884,127.316675 C91.0330884,127.316675 88.8743725,40.2443019 157.136363,32.226252 Z" id="Fill-43-Copy" fill="#F9912B" transform="translate(132.572048, 145.760036) scale(-1, 1) translate(-132.572048, -145.760036) "></path>
                        <g id="Group-24" transform="translate(109.927595, 0.000000)">
                            <path d="M133.617698,18.8611354 L133.617698,245.862926 C133.617698,256.282172 125.216366,264.722769 114.84589,264.722769 L22.1804232,264.722769 C11.8099476,264.722769 3.40861475,256.282172 3.40861475,245.862926 L3.40861475,18.8611354 C3.40861475,8.45222871 11.8099476,0 22.1804232,0 L114.84589,0 C125.216366,0 133.617698,8.45222871 133.617698,18.8611354" id="Fill-44" fill="#3C3C3B"></path>
                            <path d="M133.617698,18.7251978 L133.617698,21.8328057 L3.40861475,21.8328057 L3.40861475,18.7251978 C3.40861475,8.39131108 11.8099476,1.04980414e-13 22.1804232,1.04980414e-13 L114.84589,1.04980414e-13 C125.216366,1.04980414e-13 133.617698,8.39131108 133.617698,18.7251978" id="Fill-45" fill="#3C3C3B"></path>
                            <path d="M134.495469,103.705827 L133.617698,103.705827 L133.617698,53.2174639 L134.495469,53.2174639 C135.892989,53.2174639 137.026313,54.4151829 137.026313,55.8937194 L137.026313,101.028265 C137.026313,102.506802 135.892989,103.705827 134.495469,103.705827" id="Fill-47" fill="#3C3C3B"></path>
                            <path d="M3.40861475,77.0970951 L2.53089977,77.0970951 C1.13399182,77.0970951 0,75.9827825 0,74.6072008 L0,55.0250831 C0,53.6495014 1.13399182,52.5351887 2.53089977,52.5351887 L3.40861475,52.5351887 L3.40861475,77.0970951" id="Fill-48" fill="#3C3C3B"></path>
                            <path d="M3.40861475,103.023552 L2.53093836,103.023552 C1.1321416,103.023552 0,102.102215 0,100.965404 L0,90.7526825 C0,89.6158717 1.1321416,88.6957732 2.53093836,88.6957732 L3.40861475,88.6957732 L3.40861475,103.023552" id="Fill-49" fill="#3C3C3B"></path>
                            <path d="M49.7657754,11.2575404 C49.7657754,13.3302707 48.0860517,15.0100539 46.0162992,15.0100539 C43.9452466,15.0100539 42.2668229,13.3302707 42.2668229,11.2575404 C42.2668229,9.18481021 43.9452466,7.50502696 46.0162992,7.50502696 C48.0860517,7.50502696 49.7657754,9.18481021 49.7657754,11.2575404" id="Fill-50" fill="#FFFFFE"></path>
                            <path d="M57.9464508,10.5752653 C57.9464508,11.5176885 57.1828525,12.2809532 56.2427563,12.2809532 C55.3014344,12.2809532 54.5378361,11.5176885 54.5378361,10.5752653 C54.5378361,9.63284199 55.3014344,8.86957732 56.2427563,8.86957732 C57.1828525,8.86957732 57.9464508,9.63284199 57.9464508,10.5752653" id="Fill-51" fill="#FFFFFE"></path>
                            <path d="M95.1659635,12.9632284 L64.357207,12.9632284 C63.4520838,12.9632284 62.7185115,12.282932 62.7185115,11.4435435 L62.7185115,10.3892622 C62.7185115,9.54987374 63.4520838,8.86957732 64.357207,8.86957732 L95.1659635,8.86957732 C96.0710867,8.86957732 96.804659,9.54987374 96.804659,10.3892622 L96.804659,11.4435435 C96.804659,12.282932 96.0710867,12.9632284 95.1659635,12.9632284" id="Fill-52" fill="#FFFFFE"></path>
                            <polygon id="Fill-54" fill="#DBBE9B" points="6.13550656 242.207688 130.209084 242.207688 130.209084 21.8328057 6.13550656 21.8328057"></polygon>
                            <g id="Group-4" transform="translate(38.311927, 51.082569)">
                                <path d="M29.7881943,45.1172895 C20.8768997,45.1172895 13.6616145,37.8315498 13.6616145,28.8749721 C13.6616145,19.9183943 20.8768997,12.6652791 29.7881943,12.6652791 C38.7006481,12.6652791 45.9495521,19.9183943 45.9495521,28.8749721 C45.9495521,37.8315498 38.7006481,45.1172895 29.7881943,45.1172895 M29.8554318,0 C-30.1969788,0 16.7209233,81.0449694 29.8554318,85.4900512 C42.4914551,82.3487824 89.9414612,0 29.8554318,0" id="Fill-55" fill="#F24F2F"></path>
                                <path d="M30.1047836,94.7155963 C15.8540259,94.7155963 4.3007661,93.7517334 4.3007661,92.5629691 C4.3007661,91.3742049 15.8540259,90.410342 30.1047836,90.410342 C31.7598822,90.410342 33.3779177,90.4236366 34.9461496,90.4480102 L34.2326851,91.4938568 C32.9320024,91.4595123 31.544453,91.4406782 30.1047836,91.4406782 C22.6713178,91.4406782 16.6462494,91.9436595 16.6462494,92.5629691 C16.6462494,93.1833867 22.6713178,93.6852601 30.1047836,93.6852601 C31.0116711,93.6852601 31.8965523,93.6775049 32.752478,93.6642102 L32.0390136,94.708949 C31.4008335,94.7133806 30.7557041,94.7155963 30.1047836,94.7155963 M51.683609,93.7439782 L53.1510756,91.5935668 C54.915047,91.8849414 55.9099593,92.2150922 55.9099593,92.5629691 C55.9099593,92.9994772 54.355626,93.4049643 51.683609,93.7439782" id="Fill-56" fill="#F24F2F"></path>
                                <path d="M30.2240012,93.7954916 C22.6928858,93.7954916 16.5886693,93.2454196 16.5886693,92.5654189 C16.5886693,91.8866325 22.6928858,91.3353462 30.2240012,91.3353462 C31.6825827,91.3353462 33.0883596,91.3559891 34.4061288,91.393632 L32.906477,93.7724201 C32.0393074,93.7869915 31.142802,93.7954916 30.2240012,93.7954916" id="Fill-57" fill="#FFFFFF"></path>
                                <path d="M34.9097109,90.4480102 C38.3916347,90.4711153 41.2243862,90.5513694 43.4079654,90.6887725 C45.5915446,90.8261756 48.8519163,91.1277737 53.1890803,91.5935668 L51.7216137,93.7439782 C48.1930723,94.1746325 45.2428973,94.4474741 42.8710887,94.562503 C40.4992802,94.6775318 36.8885884,94.7263472 32.0390136,94.708949 C32.8928899,93.4656913 33.5275117,92.5358004 33.942879,91.9192761 C34.3582463,91.3027518 34.6805236,90.8123298 34.9097109,90.4480102 Z" id="Path-5" fill="#F24F2F"></path>
                                <path d="M32.7342795,93.6577518 C33.2225824,92.8205393 33.6098412,92.1949802 33.8960559,91.7810745 C33.9592837,91.6896384 34.0961885,91.5571849 34.3067705,91.3837139 C39.8446188,91.5494817 43.8520073,92.0292038 43.8520073,92.5955772 C43.8520073,93.2134391 38.9801901,93.661911 32.6735581,93.778702 L32.7342795,93.6577518 Z" id="Fill-66" fill="#FFFFFF"></path>
                            </g>
                            <path d="M68.1001209,96.1998583 C59.1888263,96.1998583 51.9735411,88.9141186 51.9735411,79.9575409 C51.9735411,71.0009631 59.1888263,63.7478479 68.1001209,63.7478479 C77.0125747,63.7478479 84.2614787,71.0009631 84.2614787,79.9575409 C84.2614787,88.9141186 77.0125747,96.1998583 68.1001209,96.1998583" id="Path" fill="#FFFFFF"></path>
                        </g>
                    </g>
                    <path d="M398.246962,126.220908 L397.998256,126.081777 C397.963836,126.033617 397.943851,125.980105 397.93941,125.925523 C397.998256,125.818499 398.058212,125.712546 398.117058,125.606593 C398.510103,125.344385 398.904259,125.09502 399.302856,124.856358 C399.077465,125.251275 398.849854,125.653683 398.622243,126.062513 C398.571169,126.09569 398.518985,126.129938 398.469022,126.164185 L398.246962,126.220908" id="Fill-28" fill="#9390BA"></path>
                    <path d="M318.177825,252.782309 C318.177825,256.738535 314.972113,259.946843 311.020378,259.946843 C307.067354,259.946843 303.861643,256.738535 303.861643,252.782309 C303.861643,248.827372 307.067354,245.619064 311.020378,245.619064 C314.972113,245.619064 318.177825,248.827372 318.177825,252.782309" id="Fill-53" fill="#FFFFFE"></path>
                    <g id="Group-10" transform="translate(315.551312, 176.751057)"></g>
                    <polyline id="Fill-93" fill="#A47C57" points="269.068411 241.525413 269.093772 264.696865 245.941821 264.722769 245.915192 241.552613 269.068411 241.525413"></polyline>
                    <polyline id="Fill-94" fill="#A47C57" points="269.088696 241.525413 269.093772 245.592662 245.920268 245.619064 245.915192 241.551816 269.088696 241.525413"></polyline>
                    <polyline id="Fill-95" fill="#A47C57" points="270.457218 245.591396 245.920396 245.619064 245.915192 241.551824 270.452014 241.525413 270.457218 245.591396"></polyline>
                    <polyline id="Fill-96" fill="#A47C57" points="259.542165 240.843138 259.549651 248.343994 259.124198 247.6238 258.697497 248.345384 258.272044 247.625191 257.849086 248.346775 257.424881 247.626581 256.99818 248.348165 256.572727 247.627971 256.148522 248.348165 256.141036 240.847309 259.542165 240.843138"></polyline>
                    <polyline id="Fill-97" fill="#DE9955" points="271.113579 241.525413 271.138941 264.696865 247.985723 264.722769 247.960361 241.553908 271.113579 241.525413"></polyline>
                    <polyline id="Fill-98" fill="#A47C57" points="271.135133 241.525413 271.138941 245.59267 247.965438 245.619064 247.960361 241.553064 271.135133 241.525413"></polyline>
                    <polyline id="Fill-99" fill="#DE9955" points="271.138941 245.591404 246.602119 245.619064 246.596915 241.551816 271.133737 241.525413 271.138941 245.591404"></polyline>
                    <polyline id="Fill-100" fill="#BA5102" points="261.586083 240.843138 261.59482 248.343995 261.169211 247.623935 260.743602 248.345385 260.317993 247.625325 259.893633 248.345385 259.468024 247.625325 259.042415 248.346775 258.616806 247.626715 258.193694 248.348165 258.186205 240.848698 261.586083 240.843138"></polyline>
                    <polyline id="Fill-101" fill="#BA5102" points="256.79613 218.328057 256.822759 241.499509 233.670808 241.525413 233.644179 218.355257 256.79613 218.328057"></polyline>
                    <polyline id="Fill-102" fill="#BA5102" points="256.817682 218.328057 256.822759 222.395306 233.649256 222.421708 233.644179 218.35446 256.817682 218.328057"></polyline>
                    <polyline id="Fill-103" fill="#BA5102" points="257.504482 221.711773 232.96766 221.739433 232.962456 217.672184 257.500579 217.645782 257.504482 221.711773"></polyline>
                    <polyline id="Fill-104" fill="#BA5102" points="246.589429 216.963507 246.596915 224.464363 246.171462 223.744303 245.746009 224.464363 245.320556 223.744303 244.897598 224.465753 244.472145 223.745693 244.045444 224.467144 243.619991 223.747084 243.197034 224.468534 243.1883 216.967677 246.589429 216.963507"></polyline>
                    <polyline id="Fill-105" fill="#C6854C" points="258.159575 218.328057 258.186205 241.499509 235.032987 241.525413 235.007625 218.355257 258.159575 218.328057"></polyline>
                    <polyline id="Fill-106" fill="#BA5102" points="258.181128 218.328057 258.186205 222.395306 235.012702 222.421708 235.007625 218.35446 258.181128 218.328057"></polyline>
                    <polyline id="Fill-107" fill="#C6854C" points="258.867928 221.711765 234.329805 221.739433 234.325902 217.672192 258.862724 217.645782 258.867928 221.711765"></polyline>
                    <polyline id="Fill-108" fill="#BA5102" points="248.634595 216.963507 248.642084 224.464363 248.216475 223.744169 247.790866 224.465753 247.366505 223.74556 246.942145 224.467143 246.516536 223.74695 246.089679 224.468534 245.66407 223.74834 245.240958 224.468534 245.233469 216.967678 248.634595 216.963507"></polyline>
                    <g id="Group-33" transform="translate(324.167939, 244.602323) scale(-1, 1) translate(-324.167939, -244.602323) translate(261.935681, 202.443142)">
                        <polyline id="Fill-109" fill="#166641" points="103.692941 84.318362 10.471327 61.2043681 0 54.2982542 118.619793 84.0754006 103.692941 84.318362"></polyline>
                        <g id="Group-31" transform="translate(62.427728, 0.000000)">
                            <polyline id="Fill-143" fill="#CF8742" points="42.2668229 9.19627644 34.0319605 42.9833362 0 34.469335 8.23358019 0.682275178 42.2668229 9.19627644"></polyline>
                            <polyline id="Fill-144" fill="#BA5102" points="41.5851 9.0228574 40.0981161 15.0100539 6.13550656 6.6694717 7.62121077 0.682275178 41.5851 9.0228574"></polyline>
                            <polyline id="Fill-145" fill="#CF8742" points="40.7989132 14.3277787 6.13550656 5.8717538 7.60468071 0 42.2668229 8.45602494 40.7989132 14.3277787"></polyline>
                            <polyline id="Fill-146" fill="#BA5102" points="27.950641 4.6983651 25.4878619 15.0100539 25.0962584 13.8584681 24.2265936 14.687978 23.8349901 13.5363921 22.9691395 14.365902 22.577536 13.2143162 21.7078711 14.0438261 21.3162676 12.8922402 20.4516885 13.7230647 22.9131961 3.41137589 27.950641 4.6983651"></polyline>
                        </g>
                        <g id="Group-32" transform="translate(51.520161, 33.431484)">
                            <polygon id="Fill-147" fill="#CF8742" points="34.0441626 42.3579824 0 33.7870598 8.23358019 0 42.2668229 8.51400126"></polygon>
                            <polyline id="Fill-148" fill="#BA5102" points="42.9485459 9.70513258 41.4628417 15.6923291 7.49895246 7.35047409 8.98465667 1.36455036 42.9485459 9.70513258"></polyline>
                            <polyline id="Fill-149" fill="#CF8742" points="41.4818491 15.0100539 6.81722951 6.55402898 8.28519068 0.682275178 42.9485459 9.13830012 41.4818491 15.0100539"></polyline>
                            <polyline id="Fill-150" fill="#F5BA65" points="28.6323639 4.6983651 26.1695849 15.0100539 25.7779814 13.8584681 24.9083165 14.6866634 24.516713 13.5350775 23.6508625 14.365902 23.259259 13.2143162 22.3895941 14.0438261 21.9979906 12.8922402 21.1334115 13.7230647 23.5949191 3.41137589 28.6323639 4.6983651"></polyline>
                        </g>
                        <g id="Group-30" transform="translate(80.244277, 40.254236)">
                            <polygon id="Fill-151" fill="#BA5102" points="34.0758178 42.7266991 0 34.1992734 8.14182731 0.682275178 42.1750701 9.19731416"></polygon>
                            <polyline id="Fill-152" fill="#BA5102" points="42.1750701 9.02413019 40.6893659 15.0100539 6.72547663 6.6694717 8.21118084 0.682275178 42.1750701 9.02413019"></polyline>
                            <polyline id="Fill-153" fill="#BA5102" points="41.3900962 14.3277787 6.72547663 5.87351488 8.1934378 0 42.856793 8.45551302 41.3900962 14.3277787"></polyline>
                            <polyline id="Fill-154" fill="#A47C57" points="28.5406111 5.37947142 26.0791034 15.6923291 25.6862285 14.539298 24.8178351 15.3702166 24.4249601 14.2171855 23.5591096 15.0494189 23.1687775 13.8963878 22.2978412 14.7273065 21.9075092 13.5755901 21.0416586 14.4065087 23.5031662 4.09365107 28.5406111 5.37947142"></polyline>
                            <polygon id="Fill-155" fill="#F5BA65" points="36.1570544 43.2538389 1.7579392 34.635705 10.1869962 1.36455036 44.2202389 9.87855162"></polygon>
                            <polyline id="Fill-156" fill="#BA5102" points="44.2202389 10.3874078 42.733255 16.3746043 8.77064548 8.03402205 10.2563497 2.04682553 44.2202389 10.3874078"></polyline>
                            <polyline id="Fill-157" fill="#F5BA65" points="42.7535421 15.0100539 8.08892253 6.55402898 9.5568837 0.682275178 44.2202389 9.13830012 42.7535421 15.0100539"></polyline>
                            <polyline id="Fill-158" fill="#BA5102" points="29.904057 5.38064028 27.4404242 15.6923291 27.0488871 14.5407432 26.1806408 15.3702531 25.7878325 14.2186673 24.9233999 15.0481772 24.5305916 13.8965913 23.6610742 14.7261012 23.2708083 13.5745154 22.4051045 14.4053399 24.8674661 4.09365107 29.904057 5.38064028"></polyline>
                        </g>
                    </g>
                    <g id="Group-5" transform="translate(178.424620, 236.749487)">
                        <g id="Group-29" transform="translate(25.223749, 0.000000)">
                            <path d="M22.8086622,16.4980961 L19.7699656,16.4980961 C20.7964009,16.3357146 21.8424407,16.2511125 22.8996831,16.2511125 C23.2203566,16.2511125 23.5410301,16.2592998 23.8603033,16.2743098 C23.5410301,16.4175876 23.1839482,16.4980961 22.8086622,16.4980961" id="Fill-163" fill="#212220"></path>
                            <polyline id="Fill-165" fill="#A47C57" points="23.8412112 0 23.8603033 15.6845995 23.0093428 14.1773321 22.1570187 15.687176 21.307422 14.1786203 20.4605527 15.6884643 19.610956 14.1811968 18.7586318 15.6897526 17.9090351 14.1824851 17.0621658 15.6923291 17.0430738 0.00515305118 23.8412112 0"></polyline>
                            <polyline id="Fill-166" fill="#CF8742" points="44.9346366 0.682275178 44.9937148 52.4864246 2.10424702 52.5351887 2.04516885 0.731039271 44.9346366 0.682275178"></polyline>
                            <polyline id="Fill-167" fill="#BA5102" points="44.9847141 0.682275178 44.9937148 10.1859714 2.05674112 10.2341277 2.04516885 0.731732924 44.9847141 0.682275178"></polyline>
                            <polyline id="Fill-168" fill="#CF8742" points="44.3119918 9.50107939 0.0115586449 9.55185249 0 0.0507731017 44.3017175 0 44.3119918 9.50107939"></polyline>
                            <polyline id="Fill-169" fill="#F5BA65" points="26.5680992 0 26.5871951 15.6846002 25.7374284 14.1761683 24.8849337 15.6858883 24.035167 14.1787446 23.1881283 15.6884646 22.3383616 14.1800327 21.4858669 15.6897528 20.6347362 14.182609 19.7876975 15.6923291 19.7699656 0.00644078522 26.5680992 0"></polyline>
                        </g>
                        <polyline id="Fill-170" fill="#BA5102" points="2.07868335 21.8328057 2.04516885 52.5004153 33.3683321 52.5351887 33.4044246 21.870155 2.07868335 21.8328057"></polyline>
                        <polyline id="Fill-171" fill="#BA5102" points="2.05161952 21.8328057 2.04516885 27.2570036 33.3979739 27.2910071 33.4044246 21.869328 2.05161952 21.8328057"></polyline>
                        <polyline id="Fill-172" fill="#BA5102" points="2.04516885 26.5734609 34.7613538 26.6087319 34.7678705 21.1858016 2.0516855 21.1505305 2.04516885 26.5734609"></polyline>
                        <polyline id="Fill-173" fill="#A47C57" points="15.6901275 21.8328057 15.6796279 30.6974452 16.2754792 29.8456695 16.872643 30.6986796 17.4671819 29.8481384 18.0604084 30.6999141 18.6562598 29.8493729 19.2521111 30.7011486 19.8479625 29.8506073 20.4411889 30.702383 20.4516885 21.8377435 15.6901275 21.8328057"></polyline>
                        <polyline id="Fill-174" fill="#F5BA65" points="0.716526465 21.8328057 0.681722951 52.5004138 32.0074642 52.5351887 32.0409787 21.8688686 0.716526465 21.8328057"></polyline>
                        <polyline id="Fill-175" fill="#BA5102" points="0.686883906 21.8328057 0.681722951 27.2557442 32.0345275 27.2910071 32.0409787 21.8680687 0.686883906 21.8328057"></polyline>
                        <polyline id="Fill-176" fill="#F5BA65" points="0 26.5734609 32.7161852 26.6087319 32.7227016 21.1858016 0.00651638952 21.1505305 0 26.5734609"></polyline>
                        <polyline id="Fill-177" fill="#BA5102" points="12.9645481 21.8328057 12.9527361 30.6962116 13.5485874 29.8457887 14.1444388 30.6986802 14.7402901 29.847023 15.3335166 30.6999144 15.9280555 29.8482573 16.5252193 30.7011487 17.1210707 29.8494916 17.7142971 30.702383 17.7247967 21.8377428 12.9645481 21.8328057"></polyline>
                    </g>
                    <g id="Group-27" transform="translate(178.424620, 257.900017)"></g>
                    <path d="M386.373298,262.417361 C386.346029,262.134899 386.336485,261.842886 386.326941,261.569976 C386.35421,261.852437 386.363754,262.134899 386.373298,262.417361" id="Fill-213" fill="#2A2A5D"></path>
                    <g id="Group-3" transform="translate(154.311927, 169.211009)">
                        <path d="M18.0005441,39.819963 C20.4726066,42.6278131 22.5343826,49.2908195 25.0581619,52.0535702 C26.2993649,53.4132311 35.187757,60.7293424 41.1489789,63.8361842 C41.4041151,62.1140584 45.1725451,63.1463317 43.8244608,61.9937936 C39.6354009,58.4142441 32.4191849,54.7912657 29.9074729,48.1733586 C28.2542595,43.8187691 22.2016713,34.1658451 22.2016713,34.1658451 L18.0005441,39.819963" id="Fill-232" fill="#B35E46"></path>
                        <polyline id="Fill-233" fill="#DE9955" points="58.5034068 42.2577557 58.5321101 65.6095319 34.2457869 65.6343866 34.2187721 42.2826104 58.5034068 42.2577557"></polyline>
                        <polyline id="Fill-234" fill="#A47C57" points="58.5270399 41.3586545 58.5321101 45.8261183 34.2238423 45.8541605 34.2187721 41.384944 58.5270399 41.3586545"></polyline>
                        <polyline id="Fill-235" fill="#DE9955" points="58.5321101 45.8243541 32.421299 45.8541605 32.4177841 41.3867076 58.5268377 41.3586545 58.5321101 45.8243541"></polyline>
                        <polyline id="Fill-236" fill="#F5BA65" points="47.7178132 42.2577557 47.7261821 49.4471819 47.2759351 48.7553054 46.8256881 49.4488736 46.3754411 48.756997 45.9285416 49.4505652 45.4799684 48.756997 45.0297214 49.4505652 44.5794744 48.7586887 44.132575 49.4505652 44.1242061 42.261139 47.7178132 42.2577557"></polyline>
                        <path d="M9.07647686,135.739454 C9.07647686,135.739454 8.1995121,140.437033 8.47914803,141.028163 C8.75878396,141.615981 9.75653821,143.324794 10.7476739,143.927514 C11.7901037,144.56004 14.0817946,145.286948 14.2704248,145.566782 C14.4590549,145.848273 14.4805654,146.262229 14.1628725,146.525505 C13.3421658,147.202738 11.8960013,147.558741 10.941268,147.424619 C7.84707154,146.989137 7.49628564,145.633015 5.6960259,145.457498 C5.3849516,145.427693 4.82071578,145.899603 3.95367892,145.480679 C3.08498741,145.061755 2.65146898,144.278549 2.70607245,143.530116 C2.80204218,142.240227 3.50030469,141.162285 3.99173589,140.196938 C4.48316708,139.233247 4.74129256,134.865178 4.74129256,134.865178" id="Fill-237" fill="#CA7A63"></path>
                        <path d="M15.9427747,55.7442735 L3.33891944,56.0592266 C3.33891944,56.0592266 -1.55701734,63.1413678 0.508270379,69.8087348 C1.5230954,73.0890656 2.73647315,74.698252 3.28631146,76.2523646 C3.79711803,77.703214 7.55774053,98.3438264 7.34900562,99.865239 C7.14027071,101.384931 5.48396766,105.666915 4.91885606,110.139937 C4.23664927,115.519955 4.78479055,132.981779 4.26889288,137.628627 C5.84543543,138.487434 7.2251223,138.514971 8.57935368,138.428918 C10.2458389,124.990921 14.5936344,106.950822 15.1689282,100.238708 C15.744222,93.5248724 16.6674073,71.9187482 15.9427747,55.7442735" id="Fill-238" fill="#BC1919"></path>
                        <path d="M5.30419502,62.634108 C2.54310499,69.4951586 7.79985983,73.2256394 7.79985983,73.2256394 C9.83979454,76.5992766 14.4621998,95.8912406 14.7075929,99.9802889 C14.8344628,102.104112 13.9151069,104.241725 14.0202753,106.367272 L14.1404679,106.993041 C14.6913504,103.82627 15.8377368,101.049096 15.9813001,99.3527958 C16.3802726,94.6017769 16.2083305,87.07186 15.8227127,77.3543369 L15.5923437,77.3715757 C15.5923437,77.3715757 6.97353603,58.483 5.30419502,62.634108 Z" id="Fill-239" fill="#F24F2F"></path>
                        <path d="M14.4357413,146.812591 C14.6573138,146.411889 14.7012901,145.81593 14.4831003,145.675006 C14.1837237,145.479748 13.1130717,144.803989 12.4957132,144.535722 C11.8766632,144.269154 10.9007293,144.043334 11.2474649,144.219915 C11.5925092,144.396495 10.9819162,145.104515 10.4085339,145.082442 C8.43129509,145.007735 6.94286898,143.725829 5.81301825,143.471146 C4.17913233,143.101006 3.4535246,141.194277 3.37402911,140.883563 C3.07126971,141.08731 2.39471239,142.652763 2.26278371,143.145151 C2.14269479,143.586602 1.92788784,144.398193 2.06150791,144.853227 C2.15453454,145.169035 2.36088453,145.802347 2.28138904,146.473013 C2.28138904,146.473013 2.60613655,146.712416 3.45859878,146.868622 C3.99646185,146.967099 4.715304,146.856736 4.715304,146.856736 L4.82862735,145.829513 C4.82862735,145.829513 5.2717724,145.802347 5.83669776,145.905918 C6.40162312,146.007792 7.33188944,146.52395 7.38770542,146.586772 C7.6194263,146.851643 7.81224514,147.338937 8.11331314,147.483257 C8.91334218,147.863584 9.71167981,148.035071 10.7197502,148.070727 C12.839066,148.143736 14.060252,147.49684 14.4357413,146.812591" id="Fill-240" fill="#211B3E"></path>
                        <path d="M19.4142042,137.562481 C20.7869347,137.572815 21.9748422,137.595205 23.3442123,137.634818 C23.2383591,140.137322 23.6836144,141.981907 23.7491425,142.142081 C24.0179759,142.791389 25.3839856,144.310459 26.5030045,144.777202 C27.6774704,145.266336 30.1759406,145.657298 30.4094896,145.915644 C30.6447188,146.175711 30.7203282,146.60112 30.4195709,146.919745 C29.6449947,147.748172 28.1731319,148.340644 27.1549255,148.350978 C23.8533155,148.387146 23.3106081,147.043751 21.3968504,147.145367 C21.0675295,147.16259 20.5365836,147.737839 19.5721438,147.441603 C18.6077041,147.147089 18.0498748,146.4065 18.0129102,145.626297 C17.9473821,144.28118 18.9622281,143.01701 19.3537167,141.944016 C19.4209251,141.761452 19.3890011,137.877663 19.4142042,137.562481" id="Fill-241" fill="#CA7A63"></path>
                        <path d="M6.33459753,53.9460711 L18.9906951,57.2417263 C22.8669359,72.6818792 25.5271347,89.7843969 25.1841046,99.4285066 C24.9851471,104.978274 23.4638083,128.155605 23.3214508,137.635531 C23.3180205,137.862994 23.3163054,138.153737 23.3128751,138.461583 C21.9167423,138.422247 20.5206096,138.396593 19.1227617,138.386332 L19.1021799,138.022048 C18.6185074,132.217453 16.1641266,116.997923 16.1932842,111.942419 C16.2275872,106.021527 17.8038108,100.601739 17.8038108,100.601739 C17.8038108,100.601739 9.16974176,75.6885018 8.5934511,74.1458547 C8.01716044,72.6014974 4.69148308,72.021722 3.89908342,68.0402559 C2.5303931,61.1770156 6.33459753,53.9460711 6.33459753,53.9460711" id="Fill-242" fill="#BC1919"></path>
                        <path d="M30.4728638,145.79123 C30.1433834,145.633686 28.9761286,145.267893 28.3188234,145.083186 C27.6598625,144.900289 26.646586,144.818801 27.0191142,144.949182 C27.3899866,145.081375 26.8585131,145.751392 26.2757136,145.820204 C24.2673731,146.061048 22.6050698,144.94556 21.4278809,144.856828 C19.7291526,144.731879 19.09006,142.826858 18.970851,142.511769 C18.6910409,142.776154 17.8698234,144.54355 17.7953178,145.083186 C17.7274348,145.570306 17.6115372,146.463058 17.8035962,146.923016 C17.9377063,147.239916 18.224139,147.875526 18.2257947,148.599869 C18.2257947,148.599869 18.5850774,148.800874 19.4642438,148.826226 C20.0222081,148.844334 20.7358064,148.612545 20.7358064,148.612545 L20.7258723,147.509733 C20.7258723,147.509733 21.1679391,147.408325 21.7523943,147.426434 C22.3368495,147.444542 23.0620376,147.761442 23.4163533,148.049368 C23.6945076,148.273915 23.9908744,148.654195 24.3170435,148.739305 C25.2591257,148.987392 25.9362991,149.054394 26.9595097,148.929445 C29.1135501,148.663249 30.2692151,147.784983 30.5639262,147.000883 C30.7394284,146.544547 30.7096261,145.903504 30.4728638,145.79123 Z" id="Fill-243" fill="#211B3E"></path>
                        <path d="M18.4931091,22.4775296 C19.3365826,22.7481102 19.0432726,24.7691128 19.885089,25.0413636 C20.1585136,25.1282166 20.5462794,25.1215356 20.9423309,25.1131844 C21.4328381,25.1048331 21.9366022,25.0948116 22.2464835,25.2668474 C25.2243262,26.920395 24.496851,30.2842788 24.8978738,34.4415313 C26.182141,37.6200174 26.54505,40.5095501 25.5640356,42.3017285 C24.3477103,44.5298422 23.0419006,45.1662075 21.5388937,47.0151744 C20.4170242,48.3981415 20.0723434,51.2208642 19.8668607,54.2540384 C19.8337183,54.7751565 20.2728548,55.6854428 20.1518851,56.1948691 C19.9232027,57.1702952 18.4583096,57.4859724 16.8227332,57.5360799 C14.9203606,57.5911982 12.5175381,57.2805317 10.3881403,56.9715354 C8.3067989,56.6675499 6.48728229,56.3635644 5.65540858,56.4036504 C4.0745171,56.4788116 2.57482446,55.7205181 2.72065092,54.7768267 C2.82007806,54.1204184 3.47132581,53.8431569 3.71657941,52.568756 C4.25845731,49.7644061 4.62302347,42.7627175 5.04061745,40.3842813 C6.11443053,34.2978898 6.89659067,29.771512 9.31101298,24.1461095 L18.4931091,22.4775296" id="Fill-244" fill="#FFFFFE"></path>
                        <path d="M23.4143606,43.564427 C23.3311356,43.564427 23.249511,43.5608904 23.1742884,43.5538173 C22.4732778,40.1764069 22.1739879,36.5337549 20.6839403,33.4551835 L23.7776697,31.8761116 C24.1345769,32.3146444 24.4930846,32.7602504 24.8467909,33.2146977 C24.8627957,33.4569518 24.880401,33.7009741 24.9028077,33.9503013 C25.5205933,35.6266285 25.9175126,37.2286881 26.0439506,38.648615 C26.1703886,40.0773834 26.0215438,41.3204826 25.546201,42.271816 C25.5430001,42.2806574 25.5381986,42.2877305 25.5349977,42.2948036 C25.5333972,42.2965719 25.5333972,42.2983402 25.5317967,42.3001084 C25.336538,42.6908978 25.1380784,43.0357119 24.9364178,43.3469288 C24.7827717,43.3858309 24.0273447,43.564427 23.4143606,43.564427" id="Fill-249" fill="#E7E5EC"></path>
                        <path d="M29.1346343,13.1050378 C29.4648237,11.6700956 29.7020954,10.142739 29.6407034,8.87918325 C29.5228972,6.45624794 29.1844116,2.94786449 25.1922733,1.54484716 C21.1984756,0.143510091 16.8164152,1.05421116 15.5437759,3.97282325 C14.2694774,6.89311561 14.6162591,11.2886765 14.4486756,13.6427211 C14.2827513,15.9967658 12.606916,18.8296846 12.606916,18.8296846 L21.2150681,22.4775296 C21.2150681,22.4775296 22.5839434,19.38081 23.154723,19.0061119 C23.7271618,18.6314139 23.9428634,20.0966008 25.8493334,19.9134525 C26.6607032,19.8361605 27.5085763,18.3541709 28.1457256,16.5344491 L28.2054583,16.3563415 C28.6302245,16.327777 29.1147234,16.2908113 29.2258927,16.2572061 C29.8132647,16.0723775 29.7651466,15.8068964 29.6290887,15.4305181 C29.3337435,14.610551 29.1976856,13.745217 29.1346343,13.1050378" id="Fill-250" fill="#CA7A63"></path>
                        <path d="M41.4227241,64.4257624 C41.4299735,65.1234905 42.9161036,67.0056952 44.0415754,67.2847865 C44.4022338,67.3761556 44.7937022,67.3877844 45.1380494,67.2499001 C45.6491332,67.4542347 47.2675652,67.6037479 46.6549896,66.7365715 C47.6898436,67.5173625 48.8551871,67.4658635 50.1546448,67.3960907 C50.5896098,67.3711719 50.5696739,66.9060198 49.6163757,66.6767662 C48.2879204,66.3611273 47.3273729,65.5637238 46.6205549,64.4141336 C46.8181014,64.274588 46.9794009,64.5270991 47.5194824,64.6001944 C48.1175591,64.6815961 48.4310963,64.4340687 48.4492199,64.1948476 C48.4619064,64.0137706 47.7424019,63.8110972 47.5847271,63.7164055 C46.984838,63.3608964 46.3867612,63.0053873 45.7850597,62.6498782 C45.1253629,62.2594827 44.6885857,62.0817282 43.8983994,62.0385355 C43.7679099,62.0302292 42.4847634,62.1116308 42.8091747,62.538574" id="Fill-251" fill="#CA7A63"></path>
                        <path d="M22.51235,36.6498813 C23.9995349,39.6229543 27.9295869,49.4881509 28.5360449,50.621635 C30.9209919,55.0964477 43.0160805,64.7352854 43.0160805,64.7352854 C43.0160805,64.7352854 45.044989,64.3805437 45.0247001,62.3669625 C41.5663734,60.0391815 35.0179902,49.9611398 33.6687916,48.7600859 C32.7965824,47.9830327 28.743876,32.3676427 28.743876,32.3676427" id="Fill-252" fill="#CA7A63"></path>
                        <path d="M25.4147783,25.1469145 C22.0785992,23.8896511 18.9032202,23.9154853 16.3338038,21.354457 C13.7728505,23.4022463 19.5887365,35.0259045 21.0003922,35.3238587 C22.4425152,35.6304242 24.3822723,42.0614125 24.7444957,42.9328855 C29.3416862,42.7623799 30.9987736,40.1944625 30.9987736,40.1944625 C29.0624018,34.3421599 28.6460141,26.3662877 25.4147783,25.1469145" id="Fill-253" fill="#FFFFFE"></path>
                        <path d="M22.0023199,25.2133499 C21.7637817,24.3613031 21.1039953,23.6883703 20.9500452,22.81791 C20.8045538,21.9959946 20.9568122,20.9380505 21.4118956,20.2249426 C21.6927278,19.7846905 22.1308936,19.4766815 22.5386078,19.1519328 C24.3504826,17.7089774 24.9747421,16.5254861 24.3403321,14.3978802 C24.1339374,13.7031859 23.9410767,12.9850561 24.0070554,12.2635784 C24.066267,11.6090592 24.1948407,10.9244087 24.9036881,10.8373626 C25.397682,10.7737521 25.7157329,10.8892555 25.8950595,11.3010502 C26.0185579,11.5872977 25.8003209,13.656315 26.4804084,12.4795195 C27.131736,11.351269 27.7204684,11.2592011 27.6612568,8.67627745 C27.6561815,8.37161633 27.5360666,7.1245145 27.7272355,6.9387047 C28.9469944,7.80246919 29.315798,9.30233931 29.4697482,10.3971106 C30.3765315,10.0054034 30.6201449,8.70473481 30.616796,8.20756804 C30.6083026,7.19482091 30.4898794,6.41308057 30.1092334,5.62464438 C28.4885274,2.27337208 26.800151,1.67241966 25.3723056,1.08988082 C23.988446,0.524081598 22.5504501,-0.0500874325 21.0566261,0.00347935744 C19.562802,0.0587201096 17.7154002,0.515711787 17.294152,1.62889664 C15.2183625,1.1216861 14.0527399,2.92286941 13.5688966,3.57236674 C12.8820421,4.49639387 12.3508295,5.53759835 12.0023269,6.64073943 C11.4897237,8.26280879 11.3831428,9.98698984 10.9821957,11.6425384 C10.6573778,12.990078 10.0889464,14.3861625 9.04851407,15.335299 C8.04868396,16.2492824 6.63098913,16.3480462 5.5431875,17.1850272 C4.1627114,18.2496672 3.40311119,20.0023056 3.49615798,21.7415523 C3.58920478,23.4741032 4.50952218,25.3355491 3.46908983,26.9375309 C3.12904608,27.4564592 2.65027802,27.8749498 2.31700131,28.4005739 C1.5489423,29.6058267 1.67920782,31.2597013 2.43711627,32.4716499 C3.19840824,33.6869465 4.66854762,35.0662913 6.03887316,35.4546506 C7.41089046,35.8430098 8.48346626,36.0321675 9.90285284,35.9417736 C12.4201916,35.7793992 14.538275,35.8999245 17.1774205,33.621662 C18.6729363,32.3310371 17.7001744,31.6145813 19.133095,30.2452802 C19.936681,29.4802795 21.085386,29.0651369 21.6673514,28.0741513 C22.1511947,27.2555838 22.240858,26.2311189 22.0260045,25.3137876 L22.0023199,25.2133499" id="Fill-254" fill="#211B3E"></path>
                    </g>
                </g>
                <g id="Group" transform="translate(0.000000, 138.348624)">
                    <path d="M145.220213,112.980491 C134.346608,112.998616 125.540711,121.822072 125.549773,132.6838 C125.567918,143.545529 134.391953,152.341807 145.265558,152.341807 C156.139163,152.332748 164.954128,143.527411 164.954128,132.656623 C164.954128,121.776777 156.111956,112.971439 145.220213,112.980491" id="Path" fill="#42210B"></path>
                    <path d="M46.7138774,113.88639 C35.8402725,113.904515 27.0343756,122.727971 27.0434374,133.589699 C27.0615822,144.451428 35.8856169,153.247706 46.7592219,153.247706 C57.6328268,153.238647 66.4477926,144.43331 66.4477926,133.562522 C66.4477926,122.682676 57.6056201,113.877338 46.7138774,113.88639" id="Path" fill="#42210B"></path>
                    <path d="M86.8165304,85.5408186 L65.6860054,85.5408186 C60.6799754,85.5408186 56.6171106,81.4823913 56.6171106,76.481829 C56.6171106,71.4812668 60.6799754,67.4228395 65.6860054,67.4228395 L86.8255993,67.4228395 C91.8316293,67.4228395 95.8944942,71.4812668 95.8944942,76.481829 C95.8854253,81.4823913 91.8316293,85.5408186 86.8165304,85.5408186" id="Path" fill="#42210B" fill-rule="nonzero"></path>
                    <path d="M60.5258042,84.9248073 L9.06889485,84.9248073 C4.06286489,84.9248073 0,80.86638 0,75.8658177 L0,35.8975559 C0,30.8969937 4.06286489,26.8385663 9.06889485,26.8385663 L60.5258042,26.8385663 C65.5318342,26.8385663 69.5946991,30.8969937 69.5946991,35.8975559 L69.5946991,75.8658177 C69.5946991,80.86638 65.5318342,84.9248073 60.5258042,84.9248073" id="Path" fill="#009245" fill-rule="nonzero"></path>
                    <path d="M35.0059341,71.3816179 C35.0059341,71.3816179 31.5597541,67.7670811 25.5561457,69.624174 C19.5525373,71.4812668 19.7883286,76.4002981 13.3947577,75.9564076 C13.3947577,75.9564076 15.698257,81.0294418 26.2000372,78.5019837 C34.1171824,76.5905369 35.0059341,71.3816179 35.0059341,71.3816179" id="Path" fill="#FFFFFF" fill-rule="nonzero"></path>
                    <path d="M16.6776976,75.0142727 C16.6776976,75.9926436 15.8796349,76.7898347 14.9001942,76.7898347 C13.9207536,76.7898347 13.1226908,75.9926436 13.1226908,75.0142727 C13.1226908,74.0359019 13.9207536,73.2387108 14.9001942,73.2387108 C15.8796349,73.2477698 16.6776976,74.0359019 16.6776976,75.0142727" id="Path" fill="#FFFFFF" fill-rule="nonzero"></path>
                    <path d="M35.0059341,71.3816179 C35.0059341,71.3816179 38.4521142,67.7670811 44.4557226,69.624174 C50.4593309,71.4812668 50.2235397,76.4002981 56.6171106,75.9564076 C56.6171106,75.9564076 54.3136113,81.0294418 43.811831,78.5019837 C35.8856169,76.5905369 35.0059341,71.3816179 35.0059341,71.3816179" id="Path" fill="#FFFFFF" fill-rule="nonzero"></path>
                    <path d="M53.3341706,75.0142727 C53.3341706,75.9926436 54.1322334,76.7898347 55.111674,76.7898347 C56.0911147,76.7898347 56.8891774,75.9926436 56.8891774,75.0142727 C56.8891774,74.0359019 56.0911147,73.2387108 55.111674,73.2387108 C54.1231645,73.2477698 53.3341706,74.0359019 53.3341706,75.0142727" id="Path" fill="#FFFFFF" fill-rule="nonzero"></path>
                    <path d="M49.3529258,41.876489 C51.3027382,43.3440453 52.2731099,45.5000848 52.2731099,48.3446075 C52.2731099,49.7487509 52.0191809,51.379369 51.5022539,53.2183439 C50.6588466,56.1896925 49.5161659,58.5359707 48.0832805,60.2752967 C46.6503951,62.0146227 44.764065,63.2828813 42.4152212,64.0710134 C40.0754463,64.8682044 37.0736421,65.248682 33.4098086,65.221505 L22.9624418,65.1852691 C22.427377,65.1852691 22.0102078,65.0946792 21.7109343,64.9134994 C21.4207296,64.7323196 21.2665584,64.4877269 21.2665584,64.1887802 C21.2665584,64.0347774 21.302834,63.8717156 21.3844541,63.6905358 C21.4660741,63.4640611 21.5749008,63.2919403 21.7109343,63.1922914 C21.8560366,63.0926425 22.0646212,62.9476987 22.3457569,62.7755779 C22.7538572,62.5491031 23.0803374,62.2863924 23.3251976,62.0055637 C23.5700577,61.7247351 23.7786423,61.2808446 23.9600202,60.6648333 L28.6486388,44.1684133 C28.7483967,43.8332307 28.80281,43.5161661 28.80281,43.2081604 C28.80281,42.9273318 28.7574656,42.691798 28.6667766,42.5015593 C28.5760877,42.3113205 28.458192,42.0848457 28.3040208,41.831194 C28.0772985,41.4960114 27.9594028,41.2333007 27.9594028,41.024944 C27.9594028,40.952472 27.9866095,40.8075282 28.0410229,40.5991715 C28.1407807,40.2639888 28.3675031,40.0284551 28.7121211,39.8925703 C29.0567391,39.7566854 29.5918039,39.6841307 30.3082466,39.6841307 L40.6739934,39.6841307 C44.5192048,39.6751545 47.4121823,40.4089327 49.3529258,41.876489 M42.6782192,46.6958714 C42.6782192,45.337023 42.3970834,44.4039471 41.8348119,43.8966436 C41.2725405,43.3893402 40.4654088,43.1266295 39.413417,43.1266295 L38.5700098,43.1266295 L33.3826019,61.77003 L34.3076292,61.77003 C35.4865856,61.77003 36.4750951,61.5163783 37.2822267,61.0181339 C38.0893584,60.5198895 38.8420766,59.5958725 39.5313127,58.2551421 C40.2205487,56.9144116 40.9369914,54.9486109 41.6806407,52.3667989 C42.3426701,49.9661666 42.6782192,48.0728378 42.6782192,46.6958714" id="Shape" fill="#FFFFFF" fill-rule="nonzero"></path>
                    <g id="Group-40" transform="translate(7.636009, 33.632808)" fill="#FFFFFF" fill-rule="nonzero">
                        <path d="M5.48668138,9.36699519 L18.1196519,9.36699519 C20.7496314,9.36699519 20.7949759,11.3146779 20.4594268,12.5014056 C20.1148088,13.7243692 20.9491471,13.6518972 21.1940073,13.2623607 C22.0464834,11.8763353 24.6855318,6.05140501 24.6855318,6.05140501 L21.9739322,6.05140501 L3.42804225,6.05140501 L5.48668138,9.36699519 Z" id="Path"></path>
                        <polygon id="Path" points="0 0 2.05863913 3.31559017 30.3898666 3.31559017 28.3312275 0"></polygon>
                    </g>
                    <path d="M142.118651,84.1366752 L130.601155,68.7998059 L121.541329,68.7998059 L129.512887,94.5273362 L111.656233,118.044473 L91.7318714,116.223616 L90.5801218,103.414205 L98.1707868,85.5136416 L44.6189627,85.5136416 C31.7955453,93.856971 34.1081135,104.990469 34.1081135,104.990469 L34.1171824,104.990469 C30.1631443,112.708728 29.0930147,120.58099 29.0930147,120.58099 L82.4906676,126.704867 L119.591516,128.697845 C119.591516,128.697845 133.475994,113.062029 141.601724,103.776565 C149.283078,95.0074627 145.5739,89.1372374 142.118651,84.1366752" id="Path" fill="#009245"></path>
                    <path d="M142.118651,84.1366752 L130.601155,68.7998059 L121.541329,68.7998059 L129.512887,94.5273362 L111.656233,118.044473 L91.7318714,116.223616 L90.5801218,103.414205 L98.1707868,85.5136416 L44.6189627,85.5136416 C31.7955453,93.856971 34.1081135,104.990469 34.1081135,104.990469 L34.1171824,104.990469 C30.1631443,112.708728 29.0930147,120.58099 29.0930147,120.58099 L82.4906676,126.704867 L119.591516,128.697845 C119.591516,128.697845 133.475994,113.062029 141.601724,103.776565 C149.283078,95.0074627 145.5739,89.1372374 142.118651,84.1366752 Z" id="Path" stroke="#009245" stroke-width="9.84607533" stroke-linecap="round" stroke-linejoin="round"></path>
                    <path d="M12.8052795,127.239347 L77.2488463,134.631483 C77.2488463,134.631483 84.2500332,122.954445 78.3189759,108.170174 C72.1521274,92.7880102 50.4321243,84.9338663 33.3916708,93.0416619 C16.3512174,101.149458 12.8052795,127.239347 12.8052795,127.239347" id="Path" fill="#166641"></path>
                    <path d="M135.208153,67.4681344 L123.90831,67.4681344 C118.90228,67.4681344 114.839415,63.4097071 114.839415,58.4091449 C114.839415,53.4085827 118.90228,49.3501554 123.90831,49.3501554 L135.208153,49.3501554 C140.214183,49.3501554 144.277048,53.4085827 144.277048,58.4091449 C144.277048,63.4097071 140.214183,67.4681344 135.208153,67.4681344" id="Path" fill="#FFA400" fill-rule="nonzero"></path>
                    <g id="Group-19" transform="translate(99.701036, 56.943195) scale(-1, 1) translate(-99.701036, -56.943195) translate(69.085819, 0.000000)">
                        <path d="M43.2556707,23.6851939 C47.8155015,25.5480279 56.1506106,21.5653751 56.1506106,21.5653751 C56.1506106,21.5653751 53.3833909,19.1012272 52.857315,14.4346583 C52.8299469,14.1993948 52.8101811,13.9595423 52.7949766,13.7138771 C52.3145142,13.541789 51.4083258,13.2171927 50.4382784,12.8707221 L46.3999622,15.6369801 C46.3999622,15.6369801 46.3026533,16.9980818 46.4455757,19.3788626 C46.4699029,19.7943214 46.5018323,20.2408325 46.5444049,20.7176311 C44.4492243,21.663733 43.2556707,23.6851939 43.2556707,23.6851939" id="Fill-379" fill="#D88145"></path>
                        <path d="M46.4148295,15.6889341 C46.4148295,15.6889341 46.3152244,17.0755992 46.4615194,19.5010942 C50.2231699,18.8166445 52.2930893,15.7741787 53.0245646,14.4640311 C52.9965506,14.2243491 52.9763183,13.9799918 52.960755,13.7297127 C52.4689546,13.5543926 51.5413817,13.2236999 50.548443,12.8707221 L46.4148295,15.6889341" id="Fill-380" fill="#C3692D"></path>
                        <path d="M45.6076076,17.5509847 C45.6076076,17.5509847 53.6498967,17.290313 53.4100608,12.3112198 C53.1702249,7.33212662 54.0470275,3.94509796 48.8999002,3.90095569 C43.7543304,3.85681342 42.849495,5.80433941 42.5240034,7.48561781 C42.1969545,9.16705109 43.508265,17.4904246 45.6076076,17.5509847" id="Fill-381" fill="#D88145"></path>
                        <path d="M52.6561052,14.4308097 C52.6561052,14.4308097 52.9622782,12.7713231 52.0772708,11.6758663 C52.0772708,11.6758663 52.648489,10.0478958 52.0346198,9.68305408 C51.4207507,9.31836758 51.0993452,10.7088028 50.8312535,10.4472035 C50.5616385,10.1856042 49.3704581,8.95492309 49.0048785,7.33036815 C48.6377756,5.70596847 43.1830226,6.87035704 42.5386885,7.06628483 C41.8958776,7.26236786 46.157927,-0.845813158 50.7627073,1.07449648 C55.3659643,2.99465086 55.713265,5.40384845 55.1816513,7.3559847 C54.6485143,9.30812096 54.6972582,14.0293285 52.6561052,14.4308097" id="Fill-382" fill="#42210B"></path>
                        <path d="M60.4489239,61.737644 C60.4489239,61.737644 59.8987447,71.4092811 57.6918806,74.164065 C55.4834796,76.9188489 13.1734682,75.8503546 13.1734682,75.8503546 C13.1734682,75.8503546 12.9905874,69.647875 14.6457355,68.0535649 C16.3008836,66.4592548 24.0279817,61.8786792 48.6953746,59.2833262 L60.4489239,61.737644" id="Fill-383" fill="#F24F2F"></path>
                        <path d="M61.1004639,41.2632003 C60.4072672,49.599165 61.321237,62.2777074 60.5338644,64.4743779 C59.8561064,66.3695447 52.1244158,65.241982 49.0413115,64.6112853 C47.8988492,64.3759277 46.5139997,64.0421199 45.0859219,63.6467808 C41.1011987,62.5438306 36.7582982,60.9670888 36.293594,59.7964542 C36.2750676,59.7503056 36.2596289,59.7056954 36.2503657,59.6610851 C36.2071374,59.4918738 36.2164006,59.3318922 36.258085,59.1719106 C36.3723313,58.7304229 36.7305086,58.2627844 36.9389308,57.45057 C37.0099487,57.1644491 37.0639841,56.8367945 37.0825105,56.4522233 C37.1550723,54.9416277 37.1504407,53.1879832 37.2029322,51.2989696 C37.2075638,51.1251434 37.2137393,50.949779 37.2199147,50.7759528 C37.2230025,50.5390569 37.2260902,50.2837017 37.2538798,50.0498824 L37.2569676,49.9637385 C37.2569676,49.9191282 37.2585114,49.874518 37.2600553,49.831446 C37.3264416,47.5009447 37.4638459,45.055072 37.6197765,42.6261205 C37.6707242,41.8692845 37.7232157,41.115525 37.7834265,40.3725335 C37.801953,40.1079485 37.8235671,39.8479784 37.8436374,39.5880083 C37.883778,39.1019103 37.9254624,38.6190427 37.9702346,38.1440204 C38.3176048,34.4098344 38.7869407,31.0880624 39.4060317,28.989073 C40.4188091,25.565928 42.652786,23.3343384 44.6845162,21.6991418 L46.1558223,20.5705023 C47.796954,20.890927 49.7375959,20.6772593 51.4929738,19.9351908 C53.3903875,19.1268222 54.0465313,18.5487348 54.378463,18.7677865 C58.7645917,21.794977 61.9202578,31.0716028 61.1004639,41.2632003" id="Fill-384" fill="#FFFFFF"></path>
                        <path d="M28.406952,107.664572 C28.406952,107.664572 28.0313858,113.786616 26.8631286,113.875477 C26.7076688,113.88639 20.9310293,113.88639 20.9310293,113.88639 L13.5582333,113.842739 C13.5582333,113.842739 13.6059487,112.043697 15.7623761,111.66331 C17.9172643,111.282923 21.5236235,109.748905 22.8304093,106.864825 C24.2033809,103.829526 28.406952,107.664572 28.406952,107.664572" id="Fill-385" fill="#42210B"></path>
                        <path d="M29.9500582,107.95912 C29.9500582,107.95912 28.5252238,109.053077 25.6217004,109.192894 C24.8738931,109.228233 24.1891724,109.189821 23.5890801,109.112998 C21.988834,108.910186 20.9886803,108.44925 20.9886803,108.44925 L13.1674776,75.6751136 C13.1674776,75.6751136 21.6395496,68.2832253 26.0602293,72.8803007 C26.6372411,73.4795184 27.1280858,74.5181624 27.5481504,75.8733164 C30.3516585,84.9092122 29.9500582,107.95912 29.9500582,107.95912" id="Fill-386" fill="#F24F2F"></path>
                        <path d="M48.7262513,35.1242869 C48.7262513,35.1242869 43.2541353,55.2676026 37.0035786,57.7232387 C37.0742064,57.4361562 37.1279449,57.1074004 37.1463695,56.7215367 C37.2185327,55.2058645 37.2139265,53.4463263 37.2661296,51.5509643 C37.2707358,51.3765539 37.2768774,51.2006001 37.2830189,51.0261897 C37.2860897,50.7884977 37.2891604,50.5322843 37.3167974,50.2976792 L37.3198682,50.2112458 C37.3198682,50.1664856 37.3214035,50.1217254 37.3229389,50.0785087 C37.3889605,47.7401751 37.5256099,45.2860825 37.6806839,42.8489679 C37.7313516,42.0895883 37.7835548,41.3332956 37.8434348,40.5878071 C40.5948466,37.2451477 44.3289056,34.8433782 48.7262513,35.1242869" id="Fill-387" fill="#E7E5EC"></path>
                        <g id="Group-38" transform="translate(26.094490, 38.379093) rotate(-11.000000) translate(-26.094490, -38.379093) translate(1.672256, 27.263470)">
                            <path d="M10.6297792,18.3320489 C10.6297792,18.3320489 8.24916467,18.5121611 7.63713812,18.3320489 C7.02511157,18.1504232 4.14751307,16.4597907 3.10752811,16.8215285 C2.06754315,17.1832664 -0.564631177,19.8410558 0.108751416,21.0488667 C0.108751416,21.0488667 1.33280451,21.0791377 2.46482354,19.9318687 C3.59684257,18.7845996 4.82089566,19.5686173 4.69971747,19.719972 C4.57700538,19.8713268 2.80228178,20.5660451 3.10752811,20.867241 C3.41430833,21.1699505 5.73970243,21.1094086 6.29037293,20.7476708 C6.84104344,20.3844194 10.9411611,20.8369701 10.9411611,20.8369701 L10.6297792,18.3320489" id="Fill-388" fill="#D88145"></path>
                            <path d="M43.724159,0.0663497542 C43.724159,0.0663497542 28.808948,12.6591825 24.882754,13.8732132 C20.95656,15.0875499 7.0858619,17.7580195 7.0858619,17.7580195 C7.0858619,17.7580195 6.70421297,21.010024 8.00367349,22.2312473 C8.00367349,22.2312473 25.8268329,21.2074398 28.0471953,20.7422119 C30.2660126,20.2769839 46.8036177,11.7899408 48.1525226,11.148722 C49.5014276,10.5076563 49.2912889,-0.971843122 43.724159,0.0663497542" id="Fill-389" fill="#FFFFFF"></path>
                        </g>
                        <path d="M29.9504603,107.96589 C29.9504603,107.96589 28.5543871,109.053908 25.7094733,109.192966 C24.9767611,109.228113 24.305862,109.18991 23.717883,109.113504 C28.0885268,103.509907 27.5970367,76.0542672 27.5970367,76.0542672 C30.3439539,85.0411107 29.9504603,107.96589 29.9504603,107.96589" id="Fill-390" fill="#BA5102"></path>
                        <path d="M56.5413664,7.99674035 L56.5413664,8.07298852 C56.5413664,8.28309804 56.4461949,8.46323628 56.3111127,8.53948445 C56.265062,8.56557344 56.2144062,8.58048143 56.1652854,8.58048143 L37.3796596,8.58048143 C37.1724313,8.58048143 37.0035786,8.35173692 37.0035786,8.07298852 L37.0035786,7.99674035 C37.0035786,7.71799195 37.1724313,7.48924744 37.3796596,7.48924744 L41.5748806,6.94463984 C41.9663118,3.7920653 44.0370594,1.21950484 46.7724725,0.332789874 L46.7755425,0.332789874 C47.4432781,0.11538165 48.1478542,0 48.8785257,0 C52.7329714,0 55.8920511,3.221524 56.2205463,7.32758889 C56.2236164,7.37588458 56.2282214,7.42231676 56.2312915,7.47061245 C56.2788772,7.50601893 56.3065077,7.52822563 56.3111127,7.53024442 C56.4461949,7.60633729 56.5413664,7.78864962 56.5413664,7.99674035" id="Fill-391" fill="#009245"></path>
                        <path d="M50.1667702,7.41041578 C51.5568014,-0.169139529 46.9279365,0.317705911 46.7724725,0.336551541 C47.4354808,0.116685859 48.1350689,0 48.8605676,0 C52.6877259,0 55.824441,3.25793827 56.1506106,7.41041578 L50.1667702,7.41041578" id="Fill-392" fill="#166641"></path>
                    </g>
                </g>
                <g id="van" transform="translate(345.871560, 136.220183)">
                    <path d="M154.005066,140.678577 L5.1721207,140.678577 C2.31711008,140.678577 0,138.361006 0,135.505429 L0,117.430451 C0,114.574874 2.31711008,112.257303 5.1721207,112.257303 L154.005066,112.257303 C156.860077,112.257303 159.177187,114.574874 159.177187,117.430451 L159.177187,135.505429 C159.177187,138.371353 156.860077,140.678577 154.005066,140.678577" id="Path" fill="#FFA400" fill-rule="nonzero"></path>
                    <path d="M62.9550532,116.364783 C51.0902083,120.627456 44.9250404,133.694827 49.1765237,145.562028 C53.4280069,157.429229 66.4927838,163.605967 78.3576287,159.353639 C90.2224736,155.111658 96.4083299,142.044288 92.1671909,130.166741 C87.926052,118.29954 74.8405866,112.112455 62.9550532,116.364783" id="Path" fill="#42210B"></path>
                    <path d="M234.441887,116.364783 C222.577042,120.627456 216.411874,133.694827 220.663358,145.562028 C224.914841,157.429229 237.979618,163.605967 249.844463,159.353639 C261.709308,155.111658 267.895164,142.044288 263.654025,130.166741 C259.402542,118.29954 246.327421,112.112455 234.441887,116.364783" id="Path" fill="#42210B"></path>
                    <path d="M159.177187,17.7645889 L159.197875,17.7645889 L159.197875,127.600859 L164.411373,140.657884 L200.326579,140.657884 L200.326579,140.678577 L222.277059,140.678577 L239.769172,96.2515847 C242.655215,86.2674098 240.865661,75.5072628 234.88669,67.0129544 L200.316235,17.7645889 L200.326579,17.7438964 C197.906027,15.1780151 194.52346,13.7295338 190.996073,13.739825 L165.983698,13.739825 C163.583834,13.739825 161.318445,14.8779726 159.880595,16.8023835 L159.177187,17.7645889 Z" id="Path" fill="#DBBE9B"></path>
                    <path d="M240.307072,101.96274 L234.079839,101.96274 C231.928237,101.96274 229.859388,101.114344 228.328441,99.5934381 C226.807837,98.0621864 225.949265,95.9929274 225.949265,93.8408979 C225.949265,91.6888685 226.807837,89.6196095 228.328441,88.0883578 C229.849044,86.5674524 231.917892,85.7087099 234.079839,85.7087099 L240.307072,85.7087099 C244.796473,85.7087099 248.427302,89.3506058 248.427302,93.8305517 C248.427302,98.3208438 244.786129,101.96274 240.307072,101.96274" id="Path" fill="#FFA400"></path>
                    <polygon id="Path" fill="#42210B" points="173.876354 31.6700098 192.74425 31.6700098 216.8153 67.2509191 173.876354 67.2509191"></polygon>
                    <polygon id="Path" stroke="#42210B" stroke-width="7.27266927" stroke-linecap="round" stroke-linejoin="round" points="173.876354 31.6700098 192.74425 31.6700098 216.8153 67.2509191 173.876354 67.2509191"></polygon>
                    <path d="M138.488704,112.257303 L20.6884828,112.257303 C9.25809606,112.257303 0,102.997369 0,91.564713 L0,20.6925905 C0,9.25993425 9.25809606,0 20.6884828,0 L138.488704,0 C149.908746,0 159.177187,9.25993425 159.177187,20.6925905 L159.177187,91.564713 C159.177187,102.997369 149.908746,112.257303 138.488704,112.257303" id="Path" fill="#009245" fill-rule="nonzero"></path>
                    <g id="Group-2" transform="translate(25.333047, 81.666612)" fill="#FFFFFF" fill-rule="nonzero">
                        <g id="Group-9">
                            <path d="M42.2355377,4.42491041 C42.2355377,4.42491041 35.5738462,-2.55883889 23.9986401,1.02097927 C12.4130897,4.60079743 12.8682363,14.1193891 0.51721207,13.2606466 C0.51721207,13.2606466 4.95489163,23.0585882 25.2296048,18.1751368 C40.5287378,14.4918557 42.2355377,4.42491041 42.2355377,4.42491041" id="Path"></path>
                            <path d="M6.84788781,11.4500449 C6.84788781,13.3434169 5.31694008,14.8746686 3.42394391,14.8746686 C1.53094773,14.8746686 0,13.3434169 0,11.4500449 C0,9.55667285 1.53094773,8.02542115 3.42394391,8.02542115 C5.31694008,8.02542115 6.84788781,9.55667285 6.84788781,11.4500449" id="Path"></path>
                            <path d="M42.2355377,4.42491041 C42.2355377,4.42491041 48.8972291,-2.55883889 60.4724353,1.02097927 C72.0579856,4.60079743 71.602839,14.1193891 83.9538633,13.2606466 C83.9538633,13.2606466 79.5161837,23.0585882 59.2414705,18.1751368 C43.9319933,14.4918557 42.2355377,4.42491041 42.2355377,4.42491041" id="Path"></path>
                            <path d="M77.6128433,11.4500449 C77.6128433,13.3434169 79.143791,14.8746686 81.0367872,14.8746686 C82.9297834,14.8746686 84.4607311,13.3434169 84.4607311,11.4500449 C84.4607311,9.55667285 82.9297834,8.02542115 81.0367872,8.02542115 C79.143791,8.02542115 77.6128433,9.55667285 77.6128433,11.4500449" id="Path"></path>
                        </g>
                    </g>
                    <g id="Group-55" transform="translate(14.730200, 13.129449)" fill="#FFFFFF" fill-rule="nonzero">
                        <path d="M80.5402636,15.943641 C84.2952232,18.7888722 86.1778752,22.9480829 86.1778752,28.4316194 C86.1778752,31.152695 85.6813516,34.2876225 84.6986486,37.846748 C83.0642585,43.5785956 80.8712793,48.1309655 78.0990226,51.4935115 C75.3267659,54.8560574 71.685593,57.2977831 67.1651595,58.8290348 C62.644726,60.3602865 56.8519508,61.1052198 49.7868339,61.0534883 L29.6259074,60.9810642 C28.5914833,60.9810642 27.7846324,60.8051772 27.2156991,60.4637495 C26.6467659,60.1223217 26.3571271,59.6463921 26.3571271,59.0566533 C26.3571271,58.7566107 26.4295368,58.4358756 26.5847004,58.0944478 C26.7295198,57.6495572 26.9467489,57.328822 27.2156991,57.1322424 C27.4846494,56.9356628 27.8984191,56.6666591 28.4363196,56.3148851 C29.222482,55.8699944 29.8534807,55.3733722 30.3293158,54.8353648 C30.7948067,54.2870112 31.2085763,53.4282687 31.5499363,52.2384447 L40.5908033,20.3511628 C40.7873439,19.7096925 40.8907863,19.0889147 40.8907863,18.4991759 C40.8907863,17.9611686 40.8080324,17.4955853 40.6321803,17.1231186 C40.4563281,16.750652 40.2184106,16.3161076 39.9287718,15.8298317 C39.4839695,15.1883614 39.2667404,14.6710467 39.2667404,14.2778874 C39.2667404,14.122693 39.3184616,13.8536893 39.4115598,13.4605301 C39.6081004,12.8190598 40.0425585,12.3638228 40.7045899,12.0844729 C41.3769656,11.8154692 42.4010455,11.6809673 43.7768296,11.6809673 L63.7825925,11.6809673 C71.1994136,11.6809673 76.785304,13.0984098 80.5402636,15.943641 M67.6409946,25.2449604 C67.6409946,22.6273477 67.0927498,20.8270923 66.0066044,19.833848 C64.9204591,18.85095 63.3584786,18.3543278 61.3413516,18.3543278 L59.7069614,18.3543278 L49.70408,54.3904741 L51.4832895,54.3904741 C53.7590226,54.3904741 55.6727073,53.9145446 57.2243435,52.9419928 C58.7863239,51.9797874 60.2241735,50.2002246 61.5585806,47.6033045 C62.8929878,45.0063844 64.2791161,41.2196403 65.7066214,36.2223797 C66.9996516,31.5768931 67.6409946,27.9143046 67.6409946,25.2449604" id="Shape"></path>
                        <g id="Group-11">
                            <path d="M10.6028474,18.0956704 L34.9945687,18.0956704 C40.0735912,18.0956704 40.1563451,21.8720682 39.5046579,24.1585994 C38.8322822,26.527901 40.4459839,26.3830529 40.921819,25.617427 C42.5768976,22.9377366 47.6662644,11.670621 47.6662644,11.670621 L42.4320783,11.670621 L6.6203145,11.670621 L10.6028474,18.0956704 Z" id="Path"></path>
                            <polygon id="Path" points="0 0 3.98253294 6.41470306 58.6725373 6.41470306 54.6900043 0"></polygon>
                        </g>
                    </g>
                </g>
            </g>
        </g>
    </g>
</svg>